<svg width="600" height="200" viewBox="0 0 600 200" fill="none" xmlns="http://www.w3.org/2000/svg">
  <!-- Large airplane silhouette -->
  <g transform="translate(200, 100)">
    <!-- Fuselage -->
    <ellipse cx="0" cy="0" rx="80" ry="20" stroke="white" stroke-width="2.5"/>
    <!-- Nose -->
    <path d="M -80 0 L -100 -8 L -100 8 Z" stroke="white" stroke-width="2.5" fill="none" stroke-linejoin="round"/>
    <!-- Tail -->
    <path d="M 80 0 L 95 -5 L 95 5 Z" stroke="white" stroke-width="2.5" fill="none" stroke-linejoin="round"/>
    <!-- Vertical stabilizer -->
    <path d="M 85 0 L 100 -35 L 95 -35 L 85 -5" stroke="white" stroke-width="2.5" fill="none" stroke-linejoin="round"/>
    <!-- Wings -->
    <line x1="-20" y1="0" x2="-20" y2="-45" stroke="white" stroke-width="2.5" stroke-linecap="round"/>
    <line x1="-20" y1="0" x2="-20" y2="45" stroke="white" stroke-width="2.5" stroke-linecap="round"/>
    <path d="M -20 -45 L -5 -50 L 10 -48 L -20 -40" stroke="white" stroke-width="2.5" fill="none" stroke-linejoin="round"/>
    <path d="M -20 45 L -5 50 L 10 48 L -20 40" stroke="white" stroke-width="2.5" fill="none" stroke-linejoin="round"/>
    <!-- Windows -->
    <circle cx="-50" cy="-5" r="3" stroke="white" stroke-width="2"/>
    <circle cx="-35" cy="-5" r="3" stroke="white" stroke-width="2"/>
    <circle cx="-20" cy="-5" r="3" stroke="white" stroke-width="2"/>
    <circle cx="-5" cy="-5" r="3" stroke="white" stroke-width="2"/>
    <circle cx="10" cy="-5" r="3" stroke="white" stroke-width="2"/>
  </g>

  <!-- Cloud shapes -->
  <g transform="translate(80, 60)">
    <path d="M 0 0 Q -5 -8, 0 -15 Q 8 -18, 15 -12 Q 20 -15, 25 -10 Q 28 -5, 25 0 Z" stroke="white" stroke-width="2.5" fill="none" stroke-linejoin="round"/>
  </g>

  <g transform="translate(480, 130)">
    <path d="M 0 0 Q -8 -10, 0 -18 Q 10 -20, 20 -15 Q 28 -18, 35 -12 Q 38 -5, 32 2 Q 25 5, 15 3 Q 8 5, 0 0 Z" stroke="white" stroke-width="2.5" fill="none" stroke-linejoin="round"/>
  </g>

  <!-- Stars/sparkles -->
  <g transform="translate(420, 50)">
    <line x1="0" y1="-6" x2="0" y2="6" stroke="white" stroke-width="2" stroke-linecap="round"/>
    <line x1="-6" y1="0" x2="6" y2="0" stroke="white" stroke-width="2" stroke-linecap="round"/>
  </g>

  <g transform="translate(530, 90)">
    <line x1="0" y1="-5" x2="0" y2="5" stroke="white" stroke-width="2" stroke-linecap="round"/>
    <line x1="-5" y1="0" x2="5" y2="0" stroke="white" stroke-width="2" stroke-linecap="round"/>
  </g>

  <!-- Motion lines -->
  <line x1="50" y1="95" x2="80" y2="95" stroke="white" stroke-width="2" stroke-linecap="round" stroke-dasharray="3,5"/>
  <line x1="45" y1="105" x2="70" y2="105" stroke="white" stroke-width="2" stroke-linecap="round" stroke-dasharray="3,5"/>

  <!-- Presidential seal circle -->
  <g transform="translate(450, 100)">
    <circle cx="0" cy="0" r="25" stroke="white" stroke-width="2.5"/>
    <circle cx="0" cy="0" r="18" stroke="white" stroke-width="2"/>
    <path d="M 0 -12 L -4 0 L 0 -4 L 4 0 Z" stroke="white" stroke-width="2" fill="none" stroke-linejoin="round"/>
  </g>

  <!-- Abstract flag -->
  <g transform="translate(550, 50)">
    <line x1="0" y1="0" x2="0" y2="40" stroke="white" stroke-width="2.5" stroke-linecap="round"/>
    <path d="M 0 5 L 20 5 L 20 20 L 0 20" stroke="white" stroke-width="2" fill="none"/>
    <line x1="5" y1="8" x2="15" y2="8" stroke="white" stroke-width="1.5"/>
    <line x1="5" y1="12" x2="15" y2="12" stroke="white" stroke-width="1.5"/>
    <line x1="5" y1="16" x2="15" y2="16" stroke="white" stroke-width="1.5"/>
  </g>
</svg>
